<?xml version="1.0"?>
<svg xmlns="http://www.w3.org/2000/svg" viewBox="0 0 512 512" width="512" height="512"><g id="solid"><path d="M127,289a95,95,0,0,0-15.408,188.744,58.181,58.181,0,0,1,.49-22.8,72.584,72.584,0,1,1,16.1,1.521,41.979,41.979,0,0,0,.087,22.514A95,95,0,0,0,127,289Z"/><path d="M274.216,81,240,101.529V122H214.624A24.038,24.038,0,0,0,192,106H176a24.038,24.038,0,0,0-22.624,16H142.624A24.038,24.038,0,0,0,120,106H104a24.038,24.038,0,0,0-22.624,16H76a20.023,20.023,0,0,0-20,20v11.376A24.038,24.038,0,0,0,40,176v16a24,24,0,0,0,46.624,8H96v-1.155A24.039,24.039,0,0,0,119,216v24H99.529L79,274.216v9.709a110.909,110.909,0,0,1,96,0v-9.709L154.471,240H135V216a24,24,0,0,0,0-48H119a24.039,24.039,0,0,0-23,17.155V184H88v-8a24.038,24.038,0,0,0-16-22.624V142a4,4,0,0,1,4-4h5.376A24.038,24.038,0,0,0,104,154h16a24.038,24.038,0,0,0,22.624-16h10.752A24.038,24.038,0,0,0,176,154h16a24.038,24.038,0,0,0,22.624-16H240v18.471L274.216,177h9.709a110.909,110.909,0,0,1,0-96ZM127,270a11,11,0,1,1,11-11A11,11,0,0,1,127,270Zm-8-86h16a8,8,0,0,1,0,16H119a8,8,0,0,1,0-16Zm-47,8a8,8,0,0,1-16,0V176a8,8,0,0,1,16,0Zm48-54H104a8,8,0,0,1,0-16h16a8,8,0,0,1,0,16Zm72,0H176a8,8,0,0,1,0-16h16a8,8,0,0,1,0,16Zm67,2a11,11,0,1,1,11-11A11,11,0,0,1,259,140Z"/><path d="M478.984,130.267c.006-.422.016-.843.016-1.267a94.982,94.982,0,1,0-1.76,18.218,56.867,56.867,0,0,1-23-.228A72.519,72.519,0,1,1,456.5,129c0,.7-.033,1.4-.053,2.094A41.446,41.446,0,0,0,478.984,130.267Z"/></g></svg>
